<mxfile host="app.diagrams.net" modified="2022-07-05T13:31:19.439Z" agent="5.0 (Windows NT 10.0; Win64; x64) AppleWebKit/537.36 (KHTML, like Gecko) Chrome/103.0.0.0 Safari/537.36" etag="6xdEpEJkV6Uxh4XVsqT5" version="20.0.4" type="github">
  <diagram id="m1tGzAOqr1DimVHdDbeJ" name="Page-1">
    <mxGraphModel dx="3160" dy="1764" grid="1" gridSize="10" guides="1" tooltips="1" connect="1" arrows="1" fold="1" page="1" pageScale="1" pageWidth="1654" pageHeight="1169" math="0" shadow="0">
      <root>
        <mxCell id="0" />
        <mxCell id="1" parent="0" />
        <mxCell id="5MGfrIOmlQQpOf-t9UWs-4" value="" style="edgeStyle=orthogonalEdgeStyle;rounded=0;orthogonalLoop=1;jettySize=auto;html=1;entryX=0.5;entryY=0;entryDx=0;entryDy=0;" parent="1" source="5MGfrIOmlQQpOf-t9UWs-2" target="5MGfrIOmlQQpOf-t9UWs-26" edge="1">
          <mxGeometry relative="1" as="geometry">
            <mxPoint x="1235" y="446.25" as="targetPoint" />
          </mxGeometry>
        </mxCell>
        <mxCell id="5MGfrIOmlQQpOf-t9UWs-2" value="Берем все перемычки =&amp;gt; обобщенная модель =&amp;gt; Описание == &quot;Перемычка&quot; =&amp;gt; Орг.ИзделиеТипПодсчета == 200" style="rounded=1;whiteSpace=wrap;html=1;" parent="1" vertex="1">
          <mxGeometry x="1107.5" y="310.63" width="250" height="70" as="geometry" />
        </mxCell>
        <mxCell id="5MGfrIOmlQQpOf-t9UWs-7" value="" style="edgeStyle=orthogonalEdgeStyle;rounded=0;orthogonalLoop=1;jettySize=auto;html=1;" parent="1" source="5MGfrIOmlQQpOf-t9UWs-5" target="5MGfrIOmlQQpOf-t9UWs-6" edge="1">
          <mxGeometry relative="1" as="geometry" />
        </mxCell>
        <mxCell id="5MGfrIOmlQQpOf-t9UWs-5" value="Берем все окна и двери, размещенные в проекте" style="rounded=1;whiteSpace=wrap;html=1;" parent="1" vertex="1">
          <mxGeometry x="220" y="250" width="190" height="40" as="geometry" />
        </mxCell>
        <mxCell id="5MGfrIOmlQQpOf-t9UWs-9" value="" style="edgeStyle=orthogonalEdgeStyle;rounded=0;orthogonalLoop=1;jettySize=auto;html=1;" parent="1" source="5MGfrIOmlQQpOf-t9UWs-6" target="5MGfrIOmlQQpOf-t9UWs-8" edge="1">
          <mxGeometry relative="1" as="geometry" />
        </mxCell>
        <mxCell id="5MGfrIOmlQQpOf-t9UWs-11" style="edgeStyle=orthogonalEdgeStyle;rounded=0;orthogonalLoop=1;jettySize=auto;html=1;" parent="1" source="5MGfrIOmlQQpOf-t9UWs-6" target="5MGfrIOmlQQpOf-t9UWs-10" edge="1">
          <mxGeometry relative="1" as="geometry" />
        </mxCell>
        <mxCell id="5MGfrIOmlQQpOf-t9UWs-6" value="Проверка на заполнение параметра ADSK_Марка" style="ellipse;whiteSpace=wrap;html=1;" parent="1" vertex="1">
          <mxGeometry x="232.5" y="350" width="165" height="80" as="geometry" />
        </mxCell>
        <mxCell id="5MGfrIOmlQQpOf-t9UWs-13" value="" style="edgeStyle=orthogonalEdgeStyle;rounded=0;orthogonalLoop=1;jettySize=auto;html=1;" parent="1" source="5MGfrIOmlQQpOf-t9UWs-8" target="5MGfrIOmlQQpOf-t9UWs-12" edge="1">
          <mxGeometry relative="1" as="geometry" />
        </mxCell>
        <mxCell id="5MGfrIOmlQQpOf-t9UWs-8" value="Лист с окнами и дверьми у которых заполнен параметр ADSK_Марка" style="rounded=1;whiteSpace=wrap;html=1;" parent="1" vertex="1">
          <mxGeometry x="90" y="525" width="120" height="60" as="geometry" />
        </mxCell>
        <mxCell id="5MGfrIOmlQQpOf-t9UWs-15" style="edgeStyle=orthogonalEdgeStyle;rounded=0;orthogonalLoop=1;jettySize=auto;html=1;entryX=0.5;entryY=0;entryDx=0;entryDy=0;" parent="1" source="5MGfrIOmlQQpOf-t9UWs-10" target="5MGfrIOmlQQpOf-t9UWs-16" edge="1">
          <mxGeometry relative="1" as="geometry">
            <mxPoint x="490" y="665" as="targetPoint" />
          </mxGeometry>
        </mxCell>
        <mxCell id="5MGfrIOmlQQpOf-t9UWs-10" value="Лист с окнами и дверьми у которых не заполнен параметр ADSK_Марка" style="rounded=1;whiteSpace=wrap;html=1;" parent="1" vertex="1">
          <mxGeometry x="420" y="525" width="140" height="60" as="geometry" />
        </mxCell>
        <mxCell id="5MGfrIOmlQQpOf-t9UWs-18" value="" style="edgeStyle=orthogonalEdgeStyle;rounded=0;orthogonalLoop=1;jettySize=auto;html=1;" parent="1" source="5MGfrIOmlQQpOf-t9UWs-12" target="5MGfrIOmlQQpOf-t9UWs-17" edge="1">
          <mxGeometry relative="1" as="geometry" />
        </mxCell>
        <mxCell id="5MGfrIOmlQQpOf-t9UWs-12" value="Проверка на:&lt;br&gt;Окна и двери должны начинаться на: ОК, БД, Д, В." style="ellipse;whiteSpace=wrap;html=1;rounded=1;" parent="1" vertex="1">
          <mxGeometry x="70" y="665" width="160" height="95" as="geometry" />
        </mxCell>
        <mxCell id="5MGfrIOmlQQpOf-t9UWs-16" value="Выдать пользователю список окон с незаполненными параметрами" style="rounded=1;whiteSpace=wrap;html=1;" parent="1" vertex="1">
          <mxGeometry x="400" y="673.75" width="180" height="77.5" as="geometry" />
        </mxCell>
        <mxCell id="5MGfrIOmlQQpOf-t9UWs-17" value="Выдать пользователю список окон и дверей у которых марка не по регламенту" style="rounded=1;whiteSpace=wrap;html=1;" parent="1" vertex="1">
          <mxGeometry x="60" y="810" width="180" height="60" as="geometry" />
        </mxCell>
        <mxCell id="5MGfrIOmlQQpOf-t9UWs-24" value="&lt;font style=&quot;font-size: 20px;&quot;&gt;Проверка окон и дверей&lt;/font&gt;" style="text;html=1;strokeColor=none;fillColor=none;align=center;verticalAlign=middle;whiteSpace=wrap;rounded=0;" parent="1" vertex="1">
          <mxGeometry x="190" y="180" width="250" height="30" as="geometry" />
        </mxCell>
        <mxCell id="5MGfrIOmlQQpOf-t9UWs-25" value="&lt;font style=&quot;font-size: 20px;&quot;&gt;Проверка перемычек&lt;/font&gt;" style="text;html=1;strokeColor=none;fillColor=none;align=center;verticalAlign=middle;whiteSpace=wrap;rounded=0;" parent="1" vertex="1">
          <mxGeometry x="1117.5" y="210" width="250" height="30" as="geometry" />
        </mxCell>
        <mxCell id="5MGfrIOmlQQpOf-t9UWs-50" value="" style="edgeStyle=orthogonalEdgeStyle;rounded=0;orthogonalLoop=1;jettySize=auto;html=1;fontSize=12;" parent="1" source="5MGfrIOmlQQpOf-t9UWs-26" target="5MGfrIOmlQQpOf-t9UWs-49" edge="1">
          <mxGeometry relative="1" as="geometry" />
        </mxCell>
        <mxCell id="5MGfrIOmlQQpOf-t9UWs-26" value="Проверка на заполнение параметра PGS_МаркаПеремычки" style="ellipse;whiteSpace=wrap;html=1;rounded=1;" parent="1" vertex="1">
          <mxGeometry x="1097.5" y="446.25" width="270" height="108.75" as="geometry" />
        </mxCell>
        <mxCell id="5MGfrIOmlQQpOf-t9UWs-32" style="edgeStyle=orthogonalEdgeStyle;rounded=0;orthogonalLoop=1;jettySize=auto;html=1;fontSize=20;entryX=0.5;entryY=0;entryDx=0;entryDy=0;exitX=0;exitY=0.5;exitDx=0;exitDy=0;" parent="1" source="5MGfrIOmlQQpOf-t9UWs-29" target="5MGfrIOmlQQpOf-t9UWs-46" edge="1">
          <mxGeometry relative="1" as="geometry">
            <mxPoint x="770" y="775" as="targetPoint" />
          </mxGeometry>
        </mxCell>
        <mxCell id="5MGfrIOmlQQpOf-t9UWs-29" value="Выдать ошибку, что не совпадает параметр PGS_МаркаПеремычки и Мрк.МаркаКонструкции, спросить, присвоить ли одинаковые значения?" style="rounded=1;whiteSpace=wrap;html=1;" parent="1" vertex="1">
          <mxGeometry x="827" y="915" width="160" height="95.63" as="geometry" />
        </mxCell>
        <mxCell id="5MGfrIOmlQQpOf-t9UWs-46" value="&lt;font style=&quot;font-size: 12px;&quot;&gt;Присвоить Мрк.МаркаКонструкции значение, как и у PGS_МаркаПеремычки, делается это через родительское семейство окна/двери&lt;/font&gt;" style="ellipse;whiteSpace=wrap;html=1;fontSize=20;" parent="1" vertex="1">
          <mxGeometry x="620" y="1107.5" width="320" height="145" as="geometry" />
        </mxCell>
        <mxCell id="5MGfrIOmlQQpOf-t9UWs-47" value="Выдать ошибку, что не заполнен параметр PGS_МаркаПеремычки" style="rounded=1;whiteSpace=wrap;html=1;" parent="1" vertex="1">
          <mxGeometry x="772.5" y="335" width="160" height="95.63" as="geometry" />
        </mxCell>
        <mxCell id="5MGfrIOmlQQpOf-t9UWs-48" value="" style="edgeStyle=orthogonalEdgeStyle;rounded=0;orthogonalLoop=1;jettySize=auto;html=1;fontSize=20;endArrow=none;" parent="1" source="5MGfrIOmlQQpOf-t9UWs-26" target="5MGfrIOmlQQpOf-t9UWs-47" edge="1">
          <mxGeometry relative="1" as="geometry">
            <mxPoint x="1097.5001284186105" y="500.70000000000005" as="sourcePoint" />
            <mxPoint x="829.5" y="507.20000000000005" as="targetPoint" />
          </mxGeometry>
        </mxCell>
        <mxCell id="5MGfrIOmlQQpOf-t9UWs-51" style="edgeStyle=orthogonalEdgeStyle;rounded=0;orthogonalLoop=1;jettySize=auto;html=1;entryX=0.5;entryY=0;entryDx=0;entryDy=0;fontSize=12;" parent="1" source="5MGfrIOmlQQpOf-t9UWs-49" target="5MGfrIOmlQQpOf-t9UWs-29" edge="1">
          <mxGeometry relative="1" as="geometry" />
        </mxCell>
        <mxCell id="5MGfrIOmlQQpOf-t9UWs-59" style="edgeStyle=orthogonalEdgeStyle;rounded=0;orthogonalLoop=1;jettySize=auto;html=1;fontSize=12;entryX=0.5;entryY=0;entryDx=0;entryDy=0;" parent="1" source="5MGfrIOmlQQpOf-t9UWs-49" target="5MGfrIOmlQQpOf-t9UWs-60" edge="1">
          <mxGeometry relative="1" as="geometry">
            <mxPoint x="1572.5" y="822" as="targetPoint" />
          </mxGeometry>
        </mxCell>
        <mxCell id="5MGfrIOmlQQpOf-t9UWs-49" value="Проверка на совпадение параметра PGS_МаркаПеремычки и Мрк.МаркаКонструкции" style="ellipse;whiteSpace=wrap;html=1;rounded=1;" parent="1" vertex="1">
          <mxGeometry x="1065" y="775" width="330" height="94.38" as="geometry" />
        </mxCell>
        <mxCell id="5MGfrIOmlQQpOf-t9UWs-52" value="Перемычки с заполненным параметром PGS_МаркаПеремычки" style="rounded=1;whiteSpace=wrap;html=1;fontSize=12;" parent="1" vertex="1">
          <mxGeometry x="1160" y="665" width="140" height="70" as="geometry" />
        </mxCell>
        <mxCell id="5MGfrIOmlQQpOf-t9UWs-53" value="Нет" style="rhombus;whiteSpace=wrap;html=1;fontSize=12;" parent="1" vertex="1">
          <mxGeometry x="962.5" y="460.63" width="80" height="80" as="geometry" />
        </mxCell>
        <mxCell id="5MGfrIOmlQQpOf-t9UWs-56" value="Нет" style="rhombus;whiteSpace=wrap;html=1;fontSize=12;" parent="1" vertex="1">
          <mxGeometry x="940" y="782.19" width="80" height="80" as="geometry" />
        </mxCell>
        <mxCell id="5MGfrIOmlQQpOf-t9UWs-57" value="Да" style="rhombus;whiteSpace=wrap;html=1;fontSize=12;" parent="1" vertex="1">
          <mxGeometry x="1192.5" y="565" width="80" height="80" as="geometry" />
        </mxCell>
        <mxCell id="5MGfrIOmlQQpOf-t9UWs-58" value="Да" style="rhombus;whiteSpace=wrap;html=1;fontSize=12;" parent="1" vertex="1">
          <mxGeometry x="1452.5" y="782.19" width="80" height="80" as="geometry" />
        </mxCell>
        <mxCell id="5MGfrIOmlQQpOf-t9UWs-64" style="edgeStyle=orthogonalEdgeStyle;rounded=0;orthogonalLoop=1;jettySize=auto;html=1;fontSize=12;" parent="1" source="5MGfrIOmlQQpOf-t9UWs-60" target="5MGfrIOmlQQpOf-t9UWs-63" edge="1">
          <mxGeometry relative="1" as="geometry" />
        </mxCell>
        <mxCell id="5MGfrIOmlQQpOf-t9UWs-60" value="Список перемычек с заполненными и совпадающими значениями параметров" style="rounded=1;whiteSpace=wrap;html=1;fontSize=12;" parent="1" vertex="1">
          <mxGeometry x="1482.5" y="935" width="150" height="80" as="geometry" />
        </mxCell>
        <mxCell id="5MGfrIOmlQQpOf-t9UWs-68" value="" style="edgeStyle=orthogonalEdgeStyle;rounded=0;orthogonalLoop=1;jettySize=auto;html=1;fontSize=12;" parent="1" source="5MGfrIOmlQQpOf-t9UWs-61" target="5MGfrIOmlQQpOf-t9UWs-67" edge="1">
          <mxGeometry relative="1" as="geometry" />
        </mxCell>
        <mxCell id="5MGfrIOmlQQpOf-t9UWs-61" value="Список сборных перемычек" style="rounded=1;whiteSpace=wrap;html=1;" parent="1" vertex="1">
          <mxGeometry x="1282.5" y="1150" width="120" height="60" as="geometry" />
        </mxCell>
        <mxCell id="v8lRouueaaA9NP6aKBCu-1" style="edgeStyle=orthogonalEdgeStyle;rounded=0;orthogonalLoop=1;jettySize=auto;html=1;entryX=0.5;entryY=0;entryDx=0;entryDy=0;fontSize=12;" parent="1" source="5MGfrIOmlQQpOf-t9UWs-62" target="5MGfrIOmlQQpOf-t9UWs-75" edge="1">
          <mxGeometry relative="1" as="geometry" />
        </mxCell>
        <mxCell id="5MGfrIOmlQQpOf-t9UWs-62" value="Список металлических перемычек" style="rounded=1;whiteSpace=wrap;html=1;" parent="1" vertex="1">
          <mxGeometry x="1732.5" y="1150" width="120" height="60" as="geometry" />
        </mxCell>
        <mxCell id="5MGfrIOmlQQpOf-t9UWs-65" style="edgeStyle=orthogonalEdgeStyle;rounded=0;orthogonalLoop=1;jettySize=auto;html=1;entryX=0.5;entryY=0;entryDx=0;entryDy=0;fontSize=12;" parent="1" source="5MGfrIOmlQQpOf-t9UWs-63" target="5MGfrIOmlQQpOf-t9UWs-61" edge="1">
          <mxGeometry relative="1" as="geometry" />
        </mxCell>
        <mxCell id="5MGfrIOmlQQpOf-t9UWs-66" style="edgeStyle=orthogonalEdgeStyle;rounded=0;orthogonalLoop=1;jettySize=auto;html=1;entryX=0.5;entryY=0;entryDx=0;entryDy=0;fontSize=12;" parent="1" source="5MGfrIOmlQQpOf-t9UWs-63" target="5MGfrIOmlQQpOf-t9UWs-62" edge="1">
          <mxGeometry relative="1" as="geometry" />
        </mxCell>
        <mxCell id="5MGfrIOmlQQpOf-t9UWs-63" value="Разделение перемычек на сборные и металлические =&amp;gt; ADSK_Наименование == Перемычка сборная || Перемычка металлическая" style="ellipse;whiteSpace=wrap;html=1;" parent="1" vertex="1">
          <mxGeometry x="1427.5" y="1055" width="260" height="120" as="geometry" />
        </mxCell>
        <mxCell id="5MGfrIOmlQQpOf-t9UWs-73" style="edgeStyle=orthogonalEdgeStyle;rounded=0;orthogonalLoop=1;jettySize=auto;html=1;entryX=0.5;entryY=0;entryDx=0;entryDy=0;fontSize=12;startArrow=none;" parent="1" source="5MGfrIOmlQQpOf-t9UWs-69" target="5MGfrIOmlQQpOf-t9UWs-72" edge="1">
          <mxGeometry relative="1" as="geometry" />
        </mxCell>
        <mxCell id="5MGfrIOmlQQpOf-t9UWs-77" style="edgeStyle=orthogonalEdgeStyle;rounded=0;orthogonalLoop=1;jettySize=auto;html=1;entryX=0.5;entryY=0;entryDx=0;entryDy=0;fontSize=12;" parent="1" source="5MGfrIOmlQQpOf-t9UWs-67" target="5MGfrIOmlQQpOf-t9UWs-76" edge="1">
          <mxGeometry relative="1" as="geometry" />
        </mxCell>
        <mxCell id="5MGfrIOmlQQpOf-t9UWs-67" value="Проверка Перемычка 1...Перемычка 6 галочки на совпадение в одной марке" style="ellipse;whiteSpace=wrap;html=1;rounded=1;" parent="1" vertex="1">
          <mxGeometry x="1213.75" y="1290" width="257.5" height="70" as="geometry" />
        </mxCell>
        <mxCell id="5MGfrIOmlQQpOf-t9UWs-70" value="совпадает" style="rhombus;whiteSpace=wrap;html=1;fontSize=12;" parent="1" vertex="1">
          <mxGeometry x="1292.5" y="1390" width="100" height="100" as="geometry" />
        </mxCell>
        <mxCell id="5MGfrIOmlQQpOf-t9UWs-71" value="Сообщить пользователю об успешной проверке" style="rounded=1;whiteSpace=wrap;html=1;fontSize=12;" parent="1" vertex="1">
          <mxGeometry x="1521.88" y="1770" width="120" height="60" as="geometry" />
        </mxCell>
        <mxCell id="5MGfrIOmlQQpOf-t9UWs-72" value="Выдать список перемычек, у которых не совпадает набор в одной марке" style="rounded=1;whiteSpace=wrap;html=1;fontSize=12;" parent="1" vertex="1">
          <mxGeometry x="1030" y="1460" width="150" height="80" as="geometry" />
        </mxCell>
        <mxCell id="5MGfrIOmlQQpOf-t9UWs-69" value="не совпадает" style="rhombus;whiteSpace=wrap;html=1;fontSize=12;" parent="1" vertex="1">
          <mxGeometry x="1055" y="1275" width="100" height="100" as="geometry" />
        </mxCell>
        <mxCell id="5MGfrIOmlQQpOf-t9UWs-74" value="" style="edgeStyle=orthogonalEdgeStyle;rounded=0;orthogonalLoop=1;jettySize=auto;html=1;entryX=1;entryY=0.5;entryDx=0;entryDy=0;fontSize=12;endArrow=none;" parent="1" source="5MGfrIOmlQQpOf-t9UWs-67" target="5MGfrIOmlQQpOf-t9UWs-69" edge="1">
          <mxGeometry relative="1" as="geometry">
            <mxPoint x="1213.75" y="1325.0000000000002" as="sourcePoint" />
            <mxPoint x="1105" y="1460" as="targetPoint" />
          </mxGeometry>
        </mxCell>
        <mxCell id="v8lRouueaaA9NP6aKBCu-5" style="edgeStyle=orthogonalEdgeStyle;rounded=0;orthogonalLoop=1;jettySize=auto;html=1;fontSize=12;entryX=0.5;entryY=0;entryDx=0;entryDy=0;" parent="1" source="5MGfrIOmlQQpOf-t9UWs-75" target="v8lRouueaaA9NP6aKBCu-3" edge="1">
          <mxGeometry relative="1" as="geometry">
            <mxPoint x="2070" y="1210" as="targetPoint" />
          </mxGeometry>
        </mxCell>
        <mxCell id="v8lRouueaaA9NP6aKBCu-13" style="edgeStyle=orthogonalEdgeStyle;rounded=0;orthogonalLoop=1;jettySize=auto;html=1;fontSize=12;entryX=0.5;entryY=0;entryDx=0;entryDy=0;" parent="1" source="5MGfrIOmlQQpOf-t9UWs-75" target="v8lRouueaaA9NP6aKBCu-14" edge="1">
          <mxGeometry relative="1" as="geometry">
            <mxPoint x="1792.505" y="1550" as="targetPoint" />
          </mxGeometry>
        </mxCell>
        <mxCell id="5MGfrIOmlQQpOf-t9UWs-75" value="Проверить Уголок для облицовки == Уголок для облицовки и Внутренний уголок == Внутренний уголок, Полоса == Полоса в одной марке" style="ellipse;whiteSpace=wrap;html=1;rounded=1;" parent="1" vertex="1">
          <mxGeometry x="1641.88" y="1290" width="301.25" height="100" as="geometry" />
        </mxCell>
        <mxCell id="v8lRouueaaA9NP6aKBCu-11" style="edgeStyle=orthogonalEdgeStyle;rounded=0;orthogonalLoop=1;jettySize=auto;html=1;fontSize=12;" parent="1" source="5MGfrIOmlQQpOf-t9UWs-76" target="v8lRouueaaA9NP6aKBCu-7" edge="1">
          <mxGeometry relative="1" as="geometry" />
        </mxCell>
        <mxCell id="v8lRouueaaA9NP6aKBCu-18" style="edgeStyle=orthogonalEdgeStyle;rounded=0;orthogonalLoop=1;jettySize=auto;html=1;entryX=0.5;entryY=0;entryDx=0;entryDy=0;fontSize=12;" parent="1" source="5MGfrIOmlQQpOf-t9UWs-76" target="5MGfrIOmlQQpOf-t9UWs-71" edge="1">
          <mxGeometry relative="1" as="geometry" />
        </mxCell>
        <mxCell id="5MGfrIOmlQQpOf-t9UWs-76" value="Проверка Тип1...Тип6 имена на совпадение в одной марке" style="ellipse;whiteSpace=wrap;html=1;rounded=1;" parent="1" vertex="1">
          <mxGeometry x="1215" y="1567.5" width="256.25" height="85" as="geometry" />
        </mxCell>
        <mxCell id="v8lRouueaaA9NP6aKBCu-3" value="Выдать список перемычек, у которых не совпадает набор в одной марке" style="rounded=1;whiteSpace=wrap;html=1;fontSize=12;" parent="1" vertex="1">
          <mxGeometry x="2000" y="1475" width="150" height="80" as="geometry" />
        </mxCell>
        <mxCell id="v8lRouueaaA9NP6aKBCu-4" value="не совпадает" style="rhombus;whiteSpace=wrap;html=1;fontSize=12;" parent="1" vertex="1">
          <mxGeometry x="2025" y="1290" width="100" height="100" as="geometry" />
        </mxCell>
        <mxCell id="v8lRouueaaA9NP6aKBCu-7" value="не совпадает" style="rhombus;whiteSpace=wrap;html=1;fontSize=12;" parent="1" vertex="1">
          <mxGeometry x="1055" y="1620" width="100" height="100" as="geometry" />
        </mxCell>
        <mxCell id="v8lRouueaaA9NP6aKBCu-9" value="" style="endArrow=classic;html=1;rounded=0;fontSize=12;exitX=0.5;exitY=0;exitDx=0;exitDy=0;entryX=0.5;entryY=1;entryDx=0;entryDy=0;" parent="1" source="v8lRouueaaA9NP6aKBCu-7" target="5MGfrIOmlQQpOf-t9UWs-72" edge="1">
          <mxGeometry width="50" height="50" relative="1" as="geometry">
            <mxPoint x="1430" y="1530" as="sourcePoint" />
            <mxPoint x="1480" y="1480" as="targetPoint" />
          </mxGeometry>
        </mxCell>
        <mxCell id="v8lRouueaaA9NP6aKBCu-12" value="совпадает" style="rhombus;whiteSpace=wrap;html=1;fontSize=12;" parent="1" vertex="1">
          <mxGeometry x="1742.51" y="1410" width="100" height="100" as="geometry" />
        </mxCell>
        <mxCell id="v8lRouueaaA9NP6aKBCu-16" style="edgeStyle=orthogonalEdgeStyle;rounded=0;orthogonalLoop=1;jettySize=auto;html=1;fontSize=12;entryX=0.5;entryY=1;entryDx=0;entryDy=0;" parent="1" source="v8lRouueaaA9NP6aKBCu-14" target="v8lRouueaaA9NP6aKBCu-3" edge="1">
          <mxGeometry relative="1" as="geometry">
            <mxPoint x="2080" y="1610" as="targetPoint" />
          </mxGeometry>
        </mxCell>
        <mxCell id="v8lRouueaaA9NP6aKBCu-17" style="edgeStyle=orthogonalEdgeStyle;rounded=0;orthogonalLoop=1;jettySize=auto;html=1;entryX=0.5;entryY=0;entryDx=0;entryDy=0;fontSize=12;startArrow=none;" parent="1" source="v8lRouueaaA9NP6aKBCu-19" target="5MGfrIOmlQQpOf-t9UWs-71" edge="1">
          <mxGeometry relative="1" as="geometry" />
        </mxCell>
        <mxCell id="v8lRouueaaA9NP6aKBCu-14" value="Проверка параметра Пластина_N" style="ellipse;whiteSpace=wrap;html=1;rounded=1;" parent="1" vertex="1">
          <mxGeometry x="1693.43" y="1570" width="198.13" height="80" as="geometry" />
        </mxCell>
        <mxCell id="v8lRouueaaA9NP6aKBCu-15" value="не совпадает" style="rhombus;whiteSpace=wrap;html=1;fontSize=12;" parent="1" vertex="1">
          <mxGeometry x="1943.13" y="1560" width="100" height="100" as="geometry" />
        </mxCell>
        <mxCell id="v8lRouueaaA9NP6aKBCu-19" value="совпадает" style="rhombus;whiteSpace=wrap;html=1;fontSize=12;" parent="1" vertex="1">
          <mxGeometry x="1532.5" y="1560" width="100" height="100" as="geometry" />
        </mxCell>
        <mxCell id="v8lRouueaaA9NP6aKBCu-20" value="" style="edgeStyle=orthogonalEdgeStyle;rounded=0;orthogonalLoop=1;jettySize=auto;html=1;fontSize=12;endArrow=none;" parent="1" source="v8lRouueaaA9NP6aKBCu-14" target="v8lRouueaaA9NP6aKBCu-19" edge="1">
          <mxGeometry relative="1" as="geometry">
            <mxPoint x="1693.4300000000003" y="1610" as="sourcePoint" />
            <mxPoint x="1581.88" y="1770" as="targetPoint" />
          </mxGeometry>
        </mxCell>
      </root>
    </mxGraphModel>
  </diagram>
</mxfile>
